<?xml version="1.0" encoding="utf-8"?>
<!-- Generator: Adobe Illustrator 19.2.0, SVG Export Plug-In . SVG Version: 6.00 Build 0)  -->
<svg version="1.1" id="Layer_1" xmlns="http://www.w3.org/2000/svg" xmlns:xlink="http://www.w3.org/1999/xlink" x="0px" y="0px"
	 viewBox="0 0 250 250" style="enable-background:new 0 0 250 250;" xml:space="preserve">
<style type="text/css">
	.st0{fill:#3A3A3A;}
	.st1{fill:url(#SVGID_1_);}
	.st2{opacity:0.2;}
	.st3{fill:#FBFBFB;}
	.st4{fill:none;stroke:#FBFBFB;stroke-miterlimit:10;}
	.st5{opacity:0.52;}
	.st6{opacity:0.6;}
	.st7{fill:#353535;}
</style>
<g>
	<g>
		<g>
			<path class="st0" d="M178.7,201.5L84,247.2c-17,8.2-31.4-2.4-32.1-23.5l-3.7-118.1c-0.6-21.1,12.7-45.1,29.7-53.3l94.8-45.8
				c17-8.2,31.4,2.4,32.1,23.5l3.7,118.1C209.1,169.2,195.8,193.2,178.7,201.5z"/>
		</g>
		<g>
			
				<linearGradient id="SVGID_1_" gradientUnits="userSpaceOnUse" x1="-37.8968" y1="41.6434" x2="190.7973" y2="41.6434" gradientTransform="matrix(0.9004 -0.435 -0.435 -0.9004 66.8291 193.9516)">
				<stop  offset="1.500924e-03" style="stop-color:#1ACC94"/>
				<stop  offset="0.272" style="stop-color:#3ED8A8"/>
				<stop  offset="0.5805" style="stop-color:#61E4BB"/>
				<stop  offset="0.8344" style="stop-color:#76EBC7"/>
				<stop  offset="1" style="stop-color:#7EEECB"/>
			</linearGradient>
			<path class="st1" d="M167.9,197.8l-94.7,45.8c-17,8.2-31.4-2.4-32.1-23.5L37.4,102C36.7,80.9,50,56.9,67.1,48.6l94.8-45.8
				c17-8.2,31.4,2.4,32.1,23.5l3.7,118.1C198.3,165.6,185,189.6,167.9,197.8z"/>
		</g>
	</g>
	<g>
		<g class="st2">
			<g>
				
					<ellipse transform="matrix(0.9004 -0.435 0.435 0.9004 -56.7236 60.9628)" class="st3" cx="104.8" cy="154.4" rx="3.7" ry="3.7"/>
				
					<ellipse transform="matrix(0.9004 -0.435 0.435 0.9004 -19.2251 80.8017)" class="st3" cx="166.9" cy="82.4" rx="3.7" ry="3.7"/>
				
					<ellipse transform="matrix(0.9004 -0.435 0.435 0.9004 -34.7095 52.5769)" class="st3" cx="97.5" cy="102.1" rx="3.7" ry="3.7"/>
				
					<ellipse transform="matrix(0.9004 -0.435 0.435 0.9004 -60.733 79.8639)" class="st3" cx="144.1" cy="172.6" rx="3.7" ry="3.7"/>
				
					<ellipse transform="matrix(0.9004 -0.435 0.435 0.9004 -76.3559 76.623)" class="st3" cx="129.2" cy="205.1" rx="3.7" ry="3.7"/>
				<ellipse transform="matrix(0.9004 -0.435 0.435 0.9004 -74.6113 46.8379)" class="st3" cx="65" cy="186.4" rx="3.7" ry="3.7"/>
				<ellipse transform="matrix(0.9004 -0.435 0.435 0.9004 -8.6291 59.1049)" class="st3" cx="124.8" cy="48.4" rx="3.7" ry="3.7"/>
				<ellipse transform="matrix(0.9004 -0.435 0.435 0.9004 12.739 74.8621)" class="st3" cx="169.9" cy="9.6" rx="3.7" ry="3.7"/>
				<ellipse transform="matrix(0.9004 -0.435 0.435 0.9004 2.5787 85.0598)" class="st3" cx="187.1" cy="36.9" rx="3.7" ry="3.7"/>
				<ellipse transform="matrix(0.9004 -0.435 0.435 0.9004 -21.7496 35.3793)" class="st3" cx="66.4" cy="65.2" rx="3.7" ry="3.7"/>
				
					<ellipse transform="matrix(0.9004 -0.435 0.435 0.9004 -38.1757 89.4013)" class="st3" cx="176.2" cy="128.1" rx="3.7" ry="3.7"/>
			</g>
			<g>
				<path class="st4" d="M144.1,172.6c0,0-19.8-14.4-39.4-18.2c0,0,12.6,44.5,24.5,50.6"/>
				<path class="st4" d="M124.8,48.4c0,0,29.7,20.4,42.1,34c1.1,1.2-62.1,4.1-68.9,20.7c-4.9,12,23.7,41.4,6.7,51.3
					S65,186.3,65,186.3"/>
				<path class="st4" d="M187.1,36.9l-20.2,45.5c-20.1-39.4,2.9-72.8,2.9-72.8"/>
				<path class="st4" d="M176.2,128.1c0,0-41.7-0.9-78.6-26.1C78.9,89.4,66.4,65.2,66.4,65.2"/>
			</g>
		</g>
		<g class="st5">
			<g>
				<ellipse transform="matrix(0.33 -0.944 0.944 0.33 9.791 177.1459)" class="st3" cx="129.7" cy="81.7" rx="3.7" ry="3.7"/>
				<ellipse transform="matrix(0.33 -0.944 0.944 0.33 -10.6151 282.8444)" class="st3" cx="193.9" cy="148.9" rx="3.7" ry="3.7"/>
				<ellipse transform="matrix(0.33 -0.944 0.944 0.33 -41.0465 211.5384)" class="st3" cx="128.5" cy="134.7" rx="3.7" ry="3.7"/>
				<ellipse transform="matrix(0.33 -0.944 0.944 0.33 83.0334 186.0756)" class="st3" cx="172.6" cy="34.5" rx="3.7" ry="3.7"/>
				<ellipse transform="matrix(0.33 -0.944 0.944 0.33 56.0558 138.6796)" class="st3" cx="125.7" cy="29.9" rx="3.7" ry="3.7"/>
				<ellipse transform="matrix(0.33 -0.944 0.944 0.33 18.4082 113.3432)" class="st3" cx="89" cy="43.7" rx="3.7" ry="3.7"/>
				<ellipse transform="matrix(0.33 -0.944 0.944 0.33 -66.0788 276.5333)" class="st3" cx="161.8" cy="184.8" rx="3.7" ry="3.7"/>
				<ellipse transform="matrix(0.33 -0.944 0.944 0.33 -90.2357 223.6806)" class="st3" cx="112.5" cy="175.4" rx="3.7" ry="3.7"/>
				<ellipse transform="matrix(0.33 -0.944 0.944 0.33 36.0477 243.5579)" class="st3" cx="189.6" cy="96.4" rx="3.7" ry="3.7"/>
			</g>
			<g>
				<path class="st4" d="M172.6,34.5c0,0-11.7,39.3-42.9,47.2c0,0-9-44.8-4-51.9"/>
				<path class="st4" d="M161.8,184.9c0,0,21.5-20.9,32.2-35.9c0.9-1.3-56.4,0.2-65-15.5c-6.2-11.3,18.9-43.8,0.8-51.7
					S89.1,43.7,89.1,43.7"/>
				<path class="st4" d="M189.6,96.4c0,0-27.3,9.1-61,38.2c-17.1,14.8-16.1,40.7-16.1,40.7"/>
			</g>
		</g>
		<g class="st6">
			<g>
				
					<ellipse transform="matrix(0.7446 -0.6675 0.6675 0.7446 -117.1726 122.5625)" class="st3" cx="101.6" cy="214.4" rx="3.7" ry="3.7"/>
				
					<ellipse transform="matrix(0.7446 -0.6675 0.6675 0.7446 -126.5204 89.1075)" class="st3" cx="53.2" cy="209.9" rx="3.7" ry="3.7"/>
				
					<ellipse transform="matrix(0.7446 -0.6675 0.6675 0.7446 -74.3078 92.9434)" class="st3" cx="84.3" cy="143.6" rx="3.7" ry="3.7"/>
				
					<ellipse transform="matrix(0.7446 -0.6675 0.6675 0.7446 -89.199 113.2568)" class="st3" cx="103.4" cy="173.2" rx="3.7" ry="3.7"/>
			</g>
			<g>
				<path class="st4" d="M53.3,209.9c0,0,32.7-5.2,48.5,4.6c1.3,0.8-42.6,9.7-43.6,31.9"/>
				<path class="st4" d="M103.4,173.2l-1.7,41.2c-30.2-32.3-17.4-70.8-17.4-70.8"/>
			</g>
		</g>
		<g class="st6">
			<g>
				
					<ellipse transform="matrix(0.3937 -0.9192 0.9192 0.3937 -81.4712 112.2278)" class="st3" cx="44.3" cy="117.9" rx="3.7" ry="3.7"/>
				
					<ellipse transform="matrix(0.3937 -0.9192 0.9192 0.3937 -45.2364 143.2908)" class="st3" cx="86" cy="105.9" rx="3.7" ry="3.7"/>
				<ellipse transform="matrix(0.3937 -0.9192 0.9192 0.3937 -94.9346 168.1541)" class="st3" cx="80" cy="156" rx="3.7" ry="3.7"/>
				
					<ellipse transform="matrix(0.3937 -0.9192 0.9192 0.3937 -132.2796 146.7902)" class="st3" cx="45.1" cy="173.7" rx="3.7" ry="3.7"/>
				
					<ellipse transform="matrix(0.3937 -0.9192 0.9192 0.3937 -8.2063 122.0449)" class="st3" cx="88.4" cy="67.2" rx="3.7" ry="3.7"/>
			</g>
			<g>
				<path class="st4" d="M86,105.9c0,0-24.4,2.1-41.7,12.1c0,0,27,36.9,35.6,38"/>
				<path class="st4" d="M45.1,173.7c0,0-7-37-0.6-55.7s-6.2-13.7-7-13.7"/>
				<path class="st4" d="M88.3,67.3c0,0-23.3,20.1-47.4,13.7"/>
			</g>
		</g>
	</g>
	<g>
		<g class="st2">
			<path class="st7" d="M71.3,85.6v63.9c0,1.8,0.9,3.5,2.5,4.5l15.4,10c1.8,1.1,4.2-0.1,4.2-2.3V68.3c0-2.4-2.8-3.6-4.5-1.9
				l-16,15.3C71.9,82.7,71.3,84.1,71.3,85.6z"/>
			<path class="st7" d="M170.9,85.6v63.9c0,1.8-0.9,3.5-2.5,4.5L153,164c-1.8,1.1-4.2-0.1-4.2-2.3V68.3c0-2.4,2.8-3.6,4.5-1.9
				l15.9,15.2C170.4,82.7,170.9,84.1,170.9,85.6z"/>
			<path class="st7" d="M99.2,119.8v40.4c0,1.1,0.7,2.2,1.8,2.8l11.7,6.3c1.3,0.8,3.1-0.1,3.1-1.4V109c0-1.5-2.2-2.3-3.4-1.2
				l-12,9.7C99.6,118,99.2,118.9,99.2,119.8z"/>
			<path class="st7" d="M142.6,119.8v40.4c0,1.1-0.8,2.2-1.9,2.8l-12,6.3c-1.4,0.8-3.2-0.1-3.2-1.4V109c0-1.5,2.2-2.3,3.5-1.2
				l12.3,9.7C142.2,118,142.6,118.9,142.6,119.8z"/>
		</g>
		<g>
			<path class="st0" d="M72.1,85.2v63.9c0,1.8,0.9,3.5,2.5,4.5l15.4,10c1.8,1.1,4.2-0.1,4.2-2.3V68c0-2.4-2.8-3.6-4.5-1.9L73.8,81.3
				C72.7,82.3,72.1,83.8,72.1,85.2z"/>
			<path class="st0" d="M169.8,85.2v63.9c0,1.8-0.9,3.5-2.5,4.5l-15.4,10c-1.8,1.1-4.2-0.1-4.2-2.3V68c0-2.4,2.8-3.6,4.5-1.9
				L168,81.4C169.1,82.3,169.8,83.8,169.8,85.2z"/>
			<path class="st0" d="M100.3,119.6V160c0,1.1,0.7,2.2,1.8,2.8l11.7,6.3c1.3,0.8,3.1-0.1,3.1-1.4v-59.1c0-1.5-2.2-2.3-3.4-1.2
				l-12,9.7C100.7,117.8,100.3,118.6,100.3,119.6z"/>
			<path class="st0" d="M141.5,119.6V160c0,1.1-0.8,2.2-1.9,2.8l-12,6.3c-1.4,0.8-3.2-0.1-3.2-1.4v-59.1c0-1.5,2.2-2.3,3.5-1.2
				l12.3,9.7C141,117.8,141.5,118.6,141.5,119.6z"/>
		</g>
	</g>
</g>
</svg>
