<?xml version="1.0" encoding="utf-8"?>
<!-- Generator: Adobe Illustrator 19.2.0, SVG Export Plug-In . SVG Version: 6.00 Build 0)  -->
<svg version="1.1" id="Layer_1" xmlns="http://www.w3.org/2000/svg" xmlns:xlink="http://www.w3.org/1999/xlink" x="0px" y="0px"
	 viewBox="0 0 200 150" style="enable-background:new 0 0 200 150;" xml:space="preserve">
<style type="text/css">
	.st0{fill:#E9EAEB;}
	.st1{fill:none;stroke:#D8D9D8;stroke-width:2;stroke-miterlimit:10;}
	.st2{fill:#7EEECB;}
	.st3{fill:#1ACC94;}
	.st4{fill:#CFCFCE;}
	.st5{fill:none;stroke:#CFCFCE;stroke-miterlimit:10;}
	.st6{fill:#D8D9D8;}
	.st7{opacity:0.2;}
	.st8{fill:#353535;}
	.st9{fill:#3A3A3A;}
</style>
<g id="Icons">
	<g>
		<circle class="st0" cx="97.4" cy="97.6" r="46.1"/>
		<path class="st1" d="M45.9,136.6C37.8,125.8,33,112.4,33,97.9c0-35.6,28.9-64.5,64.5-64.5S162,62.3,162,97.9
			c0,14.5-4.8,27.9-12.9,38.7"/>
	</g>
	<ellipse class="st2" cx="7" cy="84.7" rx="4.8" ry="4.8"/>
	<polygon class="st2" points="175.8,60.2 174.9,62.8 176.6,65.1 173.8,65 172.2,67.3 171.4,64.6 168.8,63.8 171,62.2 171,59.5 
		173.2,61.1 	"/>
	<polygon class="st3" points="46.1,18.3 44.6,17.8 43.3,18.8 43.3,17.2 42,16.2 43.5,15.8 44,14.2 45,15.5 46.6,15.5 45.6,16.8 	"/>
	<circle class="st3" cx="12.7" cy="27.3" r="2.6"/>
	<circle class="st3" cx="184.4" cy="93.5" r="2.9"/>
	<circle class="st3" cx="142.8" cy="28" r="3.9"/>
	<rect x="62.8" y="3.1" class="st4" width="2.3" height="2.3"/>
	
		<rect x="173.5" y="118.3" transform="matrix(0.9503 -0.3114 0.3114 0.9503 -29.1141 61.1567)" class="st4" width="6.9" height="6.9"/>
	<rect x="10.6" y="117.9" class="st4" width="4.6" height="4.6"/>
	
		<rect x="14.4" y="58.4" transform="matrix(0.6706 -0.7419 0.7419 0.6706 -39.5553 32.3851)" class="st5" width="4.6" height="4.6"/>
	<rect x="90.5" y="5.4" transform="matrix(0.5866 -0.8099 0.8099 0.5866 31.6772 79.7573)" class="st3" width="6.9" height="6.9"/>
	<circle class="st2" cx="182.3" cy="34.6" r="3.5"/>
	<circle class="st2" cx="38.8" cy="39" r="1.7"/>
	<circle class="st2" cx="124.2" cy="4.9" r="2.4"/>
	<polygon class="st2" points="26.2,11.6 27.6,12.6 29.2,12 28.6,13.6 29.7,14.9 28,14.9 27.1,16.3 26.5,14.7 24.9,14.3 26.3,13.3 	
		"/>
	<polygon class="st6" points="166.7,8.1 165.9,10.3 163.6,10.6 162.1,8.8 162.9,6.7 165.2,6.3 	"/>
	<polygon class="st6" points="69.9,24.6 67,25.8 64.5,23.9 64.9,20.7 67.9,19.5 70.4,21.5 	"/>
	<polygon class="st6" points="119.1,22.1 117.1,22.5 115.8,21 116.4,19 118.4,18.6 119.8,20.2 	"/>
	<polygon class="st6" points="194.2,69 191.8,70 189.7,68.5 190,65.9 192.4,64.8 194.5,66.4 	"/>
</g>
<g>
	<g class="st7">
		<path class="st8" d="M53.6,69.6v56.2c0,1.6,0.8,3.1,2.2,4l13.6,8.8c1.6,1,3.7-0.1,3.7-2V54.3c0-2.1-2.5-3.2-4-1.7L55,66.1
			C54.1,67,53.6,68.2,53.6,69.6z"/>
		<path class="st8" d="M141.2,69.6v56.2c0,1.6-0.8,3.1-2.2,4l-13.6,8.8c-1.6,1-3.7-0.1-3.7-2V54.3c0-2.1,2.5-3.2,4-1.7l14,13.4
			C140.8,67,141.2,68.2,141.2,69.6z"/>
		<path class="st8" d="M78.1,99.7v35.6c0,1,0.6,1.9,1.6,2.5l10.3,5.5c1.1,0.7,2.7-0.1,2.7-1.2V90.2c0-1.3-1.9-2-3-1.1l-10.6,8.5
			C78.5,98.1,78.1,98.9,78.1,99.7z"/>
		<path class="st8" d="M116.3,99.7v35.6c0,1-0.7,1.9-1.7,2.5l-10.6,5.5c-1.2,0.7-2.8-0.1-2.8-1.2V90.2c0-1.3,1.9-2,3.1-1.1l10.8,8.5
			C116,98.1,116.3,98.9,116.3,99.7z"/>
	</g>
	<g>
		<path class="st9" d="M54.3,69.2v56.2c0,1.6,0.8,3.1,2.2,4l13.6,8.8c1.6,1,3.7-0.1,3.7-2V54.1c0-2.1-2.5-3.2-4-1.7l-14,13.4
			C54.8,66.7,54.3,68,54.3,69.2z"/>
		<path class="st9" d="M140.3,69.2v56.2c0,1.6-0.8,3.1-2.2,4l-13.6,8.8c-1.6,1-3.7-0.1-3.7-2V54.1c0-2.1,2.5-3.2,4-1.7l13.9,13.5
			C139.6,66.7,140.3,68,140.3,69.2z"/>
		<path class="st9" d="M79.1,99.5V135c0,1,0.6,1.9,1.6,2.5L91,143c1.1,0.7,2.7-0.1,2.7-1.2v-52c0-1.3-1.9-2-3-1.1l-10.6,8.5
			C79.4,97.9,79.1,98.6,79.1,99.5z"/>
		<path class="st9" d="M115.4,99.5V135c0,1-0.7,1.9-1.7,2.5l-10.6,5.5c-1.2,0.7-2.8-0.1-2.8-1.2v-52c0-1.3,1.9-2,3.1-1.1l10.8,8.5
			C114.9,97.9,115.4,98.6,115.4,99.5z"/>
	</g>
</g>
</svg>
