<?xml version="1.0" encoding="UTF-8" standalone="no"?><!DOCTYPE svg PUBLIC "-//W3C//DTD SVG 1.1//EN" "http://www.w3.org/Graphics/SVG/1.1/DTD/svg11.dtd"><svg width="100%" height="100%" viewBox="0 0 534 534" version="1.1" xmlns="http://www.w3.org/2000/svg" xmlns:xlink="http://www.w3.org/1999/xlink" xml:space="preserve" xmlns:serif="http://www.serif.com/" style="fill-rule:evenodd;clip-rule:evenodd;stroke-linejoin:round;stroke-miterlimit:2;"><rect id="Simple-Icon" serif:id="Simple Icon" x="0" y="0" width="533.333" height="533.333" style="fill:none;"/><g id="Simple-Icon1" serif:id="Simple Icon"><g id="Icon"><rect id="Mask" x="0" y="0" width="533.333" height="533.333" style="fill:none;"/><g id="Mask1" serif:id="Mask"><g><g id="Shadow" opacity="0.33"><path d="M506.187,114.356l-0,305.308c-0,8.6 -4.303,16.722 -11.948,21.503l-73.577,47.778c-8.6,5.258 -20.07,-0.477 -20.07,-10.987l-0,-445.785c-0,-11.464 13.38,-17.199 21.502,-9.077l75.493,73.106c5.258,4.297 8.6,11.464 8.6,18.154" style="fill:#fbfbfb;fill-rule:nonzero;"/><path d="M370.972,278.717l-0,193.029c-0,5.252 -3.819,10.51 -9.077,13.374l-57.339,30.102c-6.684,3.825 -15.284,-0.478 -15.284,-6.69l0,-282.374c0,-7.167 10.51,-10.986 16.722,-5.729l58.765,46.34c3.826,3.348 6.213,7.168 6.213,11.948" style="fill:#fbfbfb;fill-rule:nonzero;"/><path d="M161.884,278.717l0,193.029c0,5.252 3.342,10.51 8.6,13.374l55.9,30.102c6.213,3.825 14.813,-0.478 14.813,-6.69l-0,-282.374c-0,-7.167 -10.51,-10.986 -16.245,-5.729l-57.333,46.34c-3.825,3.348 -5.735,7.168 -5.735,11.948" style="fill:#fbfbfb;fill-rule:nonzero;"/><path d="M27.147,114.356l-0,305.308c-0,8.6 4.303,16.722 11.948,21.503l73.577,47.778c8.599,5.258 20.07,-0.477 20.07,-10.987l-0,-445.785c-0,-11.464 -13.38,-17.199 -21.503,-9.077l-75.97,72.629c-5.258,4.774 -8.122,11.941 -8.122,18.631" style="fill:#fbfbfb;fill-rule:nonzero;"/></g><g id="Logo"><path d="M32.391,111.734l0,305.308c0,8.6 4.303,16.722 11.948,21.502l73.577,47.779c8.6,5.257 20.07,-0.478 20.07,-10.987l0,-445.785c0,-11.464 -13.38,-17.199 -21.502,-9.077l-75.97,72.629c-5.258,4.774 -8.123,11.941 -8.123,18.631" style="fill:#f0edee;fill-rule:nonzero;"/><path d="M499.194,111.734l-0,305.308c-0,8.6 -4.303,16.722 -11.948,21.502l-73.577,47.779c-8.6,5.257 -20.07,-0.478 -20.07,-10.987l-0,-445.785c-0,-11.464 13.38,-17.199 21.502,-9.077l75.493,73.106c5.258,4.297 8.6,11.464 8.6,18.154" style="fill:#f0edee;fill-rule:nonzero;"/><path d="M167.129,276.095l-0,193.029c-0,5.251 3.342,10.509 8.599,13.374l55.901,30.101c6.213,3.826 14.812,-0.477 14.812,-6.69l0,-282.373c0,-7.168 -10.509,-10.987 -16.244,-5.729l-57.333,46.34c-3.826,3.348 -5.735,7.167 -5.735,11.948" style="fill:#f0edee;fill-rule:nonzero;"/><path d="M363.979,276.095l-0,193.029c-0,5.251 -3.819,10.509 -9.077,13.374l-57.339,30.101c-6.684,3.826 -15.283,-0.477 -15.283,-6.69l-0,-282.373c-0,-7.168 10.509,-10.987 16.721,-5.729l58.765,46.34c3.826,3.348 6.213,7.167 6.213,11.948" style="fill:#f0edee;fill-rule:nonzero;"/></g></g></g></g></g></svg>